<svg xmlns="http://www.w3.org/2000/svg" viewBox="0 0 64 64" width="64" height="64"><rect width="100%" height="100%" fill="#5A68AD" /><path d="M18 19h5v18h-6V20a1.001 1.001 0 0 1 1-1zm-1 24v-5h6v6h-5a1.001 1.001 0 0 1-1-1z" fill="#fcfbfa" opacity=".6"/><path d="M33.198 38l6 6H24v-6z" fill="#fcfbfa" opacity=".4"/><path d="M46 44h-5.388l-6-6H47v5a1.001 1.001 0 0 1-1 1z" fill="#fcfbfa" opacity=".6"/><path d="M38 32c1.093 0 6-6.63 6-11a5.96 5.96 0 0 0-.35-2H46a1.001 1.001 0 0 1 1 1v17H24V19h8.35a5.96 5.96 0 0 0-.35 2c0 4.37 4.907 11 6 11z" fill="#fcfbfa" opacity=".9"/><path d="M38 16a5.006 5.006 0 0 0-5 5c0 3.875 3.988 8.99 5 9.908 1.012-.918 5-6.033 5-9.908a5.006 5.006 0 0 0-5-5zm0 7a2 2 0 1 1 2-2 2.002 2.002 0 0 1-2 2z" fill="#fcfbfa" opacity=".4"/><path d="M38 20a1 1 0 1 1-1 1 1.001 1.001 0 0 1 1-1z" fill="#fcfbfa" opacity=".6"/><g opacity=".2"><path d="M38 23a2 2 0 1 0-2-2 2.002 2.002 0 0 0 2 2zm0-3a1 1 0 1 1-1 1 1.001 1.001 0 0 1 1-1z"/><path d="M46 18h-2.812a5.986 5.986 0 0 0-10.376 0H18a2.002 2.002 0 0 0-2 2v23a2.002 2.002 0 0 0 2 2h28a2.002 2.002 0 0 0 2-2V20a2.002 2.002 0 0 0-2-2zm-8-2a5.006 5.006 0 0 1 5 5c0 3.875-3.988 8.99-5 9.908-1.012-.918-5-6.033-5-9.908a5.006 5.006 0 0 1 5-5zm0 16c1.093 0 6-6.63 6-11a5.96 5.96 0 0 0-.35-2H46a1.001 1.001 0 0 1 1 1v17H24V19h8.35a5.96 5.96 0 0 0-.35 2c0 4.37 4.907 11 6 11zm-4.802 6l6 6H24v-6zM18 19h5v18h-6V20a1.001 1.001 0 0 1 1-1zm-1 24v-5h6v6h-5a1.001 1.001 0 0 1-1-1zm29 1h-5.388l-6-6H47v5a1.001 1.001 0 0 1-1 1z"/></g></svg>