<svg xmlns="http://www.w3.org/2000/svg" viewBox="0 0 64 64" width="64" height="64"><rect width="100%" height="100%" fill="#2EBFBC" /><g opacity=".2"><path d="M32 26a2.5 2.5 0 1 0 2.5 2.5A2.503 2.503 0 0 0 32 26zm0 4a1.5 1.5 0 1 1 1.5-1.5A1.502 1.502 0 0 1 32 30z"/><path d="M42.536 36.828l-2.673-2.672A18.973 18.973 0 0 0 40 32c0-5.855-2.723-11.493-7.668-15.874a.5.5 0 0 0-.664 0C26.723 20.507 24 26.145 24 32a18.973 18.973 0 0 0 .137 2.156l-2.673 2.673A4.967 4.967 0 0 0 20 40.364V47.5a.5.5 0 0 0 .5.5h1.075a3.002 3.002 0 0 0 1.952-.722l4.3-3.685c.411.582.847 1.155 1.322 1.712a2.001 2.001 0 0 0 1.527.695h.824v1.5a.5.5 0 0 0 1 0V46h.824a2.001 2.001 0 0 0 1.527-.695 23.78 23.78 0 0 0 1.323-1.712l4.298 3.684a3.002 3.002 0 0 0 1.953.723H43.5a.5.5 0 0 0 .5-.5v-7.136a4.97 4.97 0 0 0-1.464-3.536zM32 17.173A22.897 22.897 0 0 1 36.627 23h-9.254A22.897 22.897 0 0 1 32 17.173zM22.876 46.52a2 2 0 0 1-1.3.481H21v-6.636a3.973 3.973 0 0 1 1.171-2.828l2.14-2.14a20.301 20.301 0 0 0 2.959 7.357zm11.214-1.863a1.014 1.014 0 0 1-.766.344H32.5v-9.5a.5.5 0 0 0-1 0V45h-.824a1.014 1.014 0 0 1-.766-.344A19.4 19.4 0 0 1 25 32a18.446 18.446 0 0 1 1.858-8h10.284A18.446 18.446 0 0 1 39 32a19.4 19.4 0 0 1-4.91 12.656zM43 47h-.575a2 2 0 0 1-1.302-.482l-4.393-3.765a20.3 20.3 0 0 0 2.958-7.358l2.14 2.14A3.975 3.975 0 0 1 43 40.364z"/></g><path d="M32 17.173A22.897 22.897 0 0 1 36.627 23h-9.254A22.897 22.897 0 0 1 32 17.173zM22.876 46.52a2 2 0 0 1-1.3.481H21v-6.636a3.973 3.973 0 0 1 1.171-2.828l2.14-2.14a20.301 20.301 0 0 0 2.959 7.357zM43 47h-.575a2 2 0 0 1-1.302-.482l-4.393-3.765a20.3 20.3 0 0 0 2.958-7.358l2.14 2.14A3.975 3.975 0 0 1 43 40.364z" fill="#fcfbfa" opacity=".4"/><path d="M37.142 24H26.858A18.446 18.446 0 0 0 25 32a19.4 19.4 0 0 0 4.91 12.656 1.014 1.014 0 0 0 .766.344h.824v-9.5a.5.5 0 0 1 1 0V45h.824a1.014 1.014 0 0 0 .766-.344A19.4 19.4 0 0 0 39 32a18.446 18.446 0 0 0-1.858-8zM32 31a2.5 2.5 0 1 1 2.5-2.5A2.503 2.503 0 0 1 32 31z" fill="#fff" opacity=".95"/><path d="M32 30a1.5 1.5 0 1 1 1.5-1.5A1.502 1.502 0 0 1 32 30z" fill="#fcfbfa" opacity=".6"/></svg>